<svg id="Layer_1" data-name="Layer 1" xmlns="http://www.w3.org/2000/svg" viewBox="0 0 207.51 207.51"><defs><style>.cls-1{fill:#7f3f98;}</style></defs><title>Thatscamping-UpdatedLogo-Purple</title><path class="cls-1" d="M168.24,234.46h0l-9-4,9.2-4.05h0c1.26-.56,1.64-2.69.84-4.77s-2.47-3.32-3.73-2.76h0l-5.59,2.46a11.55,11.55,0,0,1-14.47,5.53l-0.1,0c-0.29-.11-0.57-0.24-0.84-0.38l-0.37-.18-0.34-.2-0.1-.06a11.75,11.75,0,0,1-1.26-.86l-0.2-.16c-0.23-.19-0.43-0.38-0.64-0.58l-0.23-.22a13.31,13.31,0,0,1-1.92-2.46L133,218.9h0c-1.26-.56-2.93.68-3.73,2.76s-0.42,4.22.84,4.77h0l9.2,4.05-9,4h0c-1.26.56-1.64,2.69-.84,4.77s2.47,3.32,3.73,2.76h0l16.09-7.1,16.09,7.1h0c1.26,0.56,2.93-.68,3.73-2.76S169.5,235,168.24,234.46Z" transform="translate(-71.24 -71.24)"/><path class="cls-1" d="M157.73,216.09c0-3.64-1.44-5.08-4.06-7.68l-0.49-.49c-2.13-2.13-4.22-7-2.75-12.6a20,20,0,0,0-9.89,17.34,12.86,12.86,0,0,0,3.33,9.1l0.16,0.15c0.15,0.14.29,0.28,0.44,0.4l0.15,0.11a7.91,7.91,0,0,0,.88.6l0.15,0.09,0.16,0.1,0.25,0.12c0.21,0.1.41,0.19,0.6,0.27a8.2,8.2,0,0,0,3,.57A8.1,8.1,0,0,0,157.73,216.09Z" transform="translate(-71.24 -71.24)"/><path class="cls-1" d="M175,278.76A103.76,103.76,0,1,1,278.76,175,103.87,103.87,0,0,1,175,278.76Zm0-199.41A95.66,95.66,0,1,0,270.66,175,95.76,95.76,0,0,0,175,79.34Z" transform="translate(-71.24 -71.24)"/><path class="cls-1" d="M233.47,205.69L174,102.66l-59.48,103H138.1a23.36,23.36,0,0,1,15.11-15.42l4.42-1.44-2.37,4c-3.44,5.8-1.21,11,.4,12.62l0.24,0.24h23.52V195.62c0-7.57,4.6-12.94,10.22-12.94s10.22,5.32,10.22,12.94v10.07h33.61Z" transform="translate(-71.24 -71.24)"/></svg>