<?xml version="1.0" encoding="utf-8"?>
<svg id="Layer_1" viewBox="0 0 207.51 207.51" xmlns="http://www.w3.org/2000/svg">
  <defs>
    <style>.cls-1{fill:#7f3f98;}</style>
  </defs>
  <title>Thatscamping-UpdatedLogo-Purple</title>
  <rect x="-17.328" y="-14.12" width="230.138" height="228.935" style="fill: rgb(150, 176, 61);"/>
  <g transform="matrix(0.85065, 0, 0, 0.85065, 14.153681, 13.855696)">
    <path class="cls-1" d="M 97 163.22 L 97 163.22 L 88 159.22 L 97.2 155.17 L 97.2 155.17 C 98.46 154.61 98.84 152.48 98.04 150.4 C 97.24 148.32 95.57 147.08 94.31 147.64 L 94.31 147.64 L 88.72 150.1 C 86.031 155.384 79.778 157.774 74.25 155.63 L 74.15 155.63 C 73.86 155.52 73.58 155.39 73.31 155.25 L 72.94 155.07 L 72.6 154.87 L 72.5 154.81 C 72.062 154.551 71.641 154.264 71.24 153.95 L 71.04 153.79 C 70.81 153.6 70.61 153.41 70.4 153.21 L 70.17 152.99 C 69.436 152.248 68.791 151.422 68.25 150.53 L 61.76 147.66 L 61.76 147.66 C 60.5 147.1 58.83 148.34 58.03 150.42 C 57.23 152.5 57.61 154.64 58.87 155.19 L 58.87 155.19 L 68.07 159.24 L 59.07 163.24 L 59.07 163.24 C 57.81 163.8 57.43 165.93 58.23 168.01 C 59.03 170.09 60.7 171.33 61.96 170.77 L 61.96 170.77 L 78.05 163.67 L 94.14 170.77 L 94.14 170.77 C 95.4 171.33 97.07 170.09 97.87 168.01 C 98.67 165.93 98.26 163.76 97 163.22 Z" style="fill: rgb(255, 255, 255);"/>
    <path class="cls-1" d="M 86.49 144.85 C 86.49 141.21 85.05 139.77 82.43 137.17 L 81.94 136.68 C 79.81 134.55 77.72 129.68 79.19 124.08 C 73.038 127.684 69.27 134.29 69.3 141.42 C 69.181 144.771 70.376 148.037 72.63 150.52 L 72.79 150.67 C 72.94 150.81 73.08 150.95 73.23 151.07 L 73.38 151.18 C 73.66 151.4 73.954 151.6 74.26 151.78 L 74.41 151.87 L 74.57 151.97 L 74.82 152.09 C 75.03 152.19 75.23 152.28 75.42 152.36 C 76.375 152.736 77.393 152.93 78.42 152.93 C 82.874 152.914 86.479 149.304 86.49 144.85 Z" style="fill: rgb(255, 255, 255);"/>
    <path class="cls-1" d="M 103.76 207.52 C 23.886 207.52 -26.036 121.053 13.901 51.88 C 53.838 -17.293 153.682 -17.293 193.619 51.88 C 202.726 67.654 207.52 85.546 207.52 103.76 C 207.459 161.04 161.04 207.459 103.76 207.52 Z M 103.76 8.11 C 30.121 8.11 -15.904 87.827 20.916 151.6 C 57.736 215.373 149.784 215.373 186.604 151.6 C 195.002 137.055 199.422 120.555 199.42 103.76 C 199.365 50.951 156.569 8.155 103.76 8.1 Z" style="fill: rgb(255, 255, 255);"/>
    <path class="cls-1" d="M 162.23 134.45 L 102.76 31.42 L 43.28 134.42 L 66.86 134.42 C 69.077 127.121 74.718 121.365 81.97 119 L 86.39 117.56 L 84.02 121.56 C 80.58 127.36 82.81 132.56 84.42 134.18 L 84.66 134.42 L 108.18 134.42 L 108.18 124.38 C 108.18 116.81 112.78 111.44 118.4 111.44 C 124.02 111.44 128.62 116.76 128.62 124.38 L 128.62 134.45 L 162.23 134.45 Z" style="fill: rgb(255, 255, 255);"/>
  </g>
</svg>